<svg width="44" height="44" fill="none" xmlns="http://www.w3.org/2000/svg"><circle cx="22" cy="22" r="22" fill="#6694BF"/><path fill-rule="evenodd" clip-rule="evenodd" d="M12.423 20.342c1.038-.04 1.862-.918 1.872-1.993.027-2.745 2.184-4.961 4.841-4.961 2.461 0 4.496 1.903 4.802 4.365.074.597.402 1.129.894 1.45.492.32 1.097.396 1.649.206a2.25 2.25 0 0 1 .734-.122c1.285 0 2.326 1.079 2.326 2.41 0 1.33-1.041 2.409-2.326 2.409l-.069-.001a1.88 1.88 0 0 0-.549.065H12.495c-1.021 0-1.849-.858-1.849-1.915 0-1.032.79-1.875 1.777-1.913Zm14.915 5.777a4.243 4.243 0 0 1-.247 0v.066H12.495c-2.096 0-3.795-1.76-3.795-3.93 0-2.12 1.621-3.848 3.65-3.927.037-3.848 3.061-6.955 6.786-6.955 2.77 0 5.152 1.718 6.207 4.181.26.607.44 1.26.524 1.943a4.135 4.135 0 0 1 1.62-.216c2.233.146 4 2.067 4 4.415 0 2.4-1.846 4.355-4.148 4.423Z" fill="#fff"/><path fill-rule="evenodd" clip-rule="evenodd" d="M22.478 12.158c.948-1.774 3.02-3.063 5.26-3.063 2.87 0 5.25 1.998 5.676 4.61 1.52.417 2.63 1.747 2.63 3.324 0 1.91-1.631 3.46-3.644 3.46l-.05-.002-2.272-.001c-.54-.026-.956-.463-.929-.977.027-.513.488-.907 1.029-.881h2.244c.92-.012 1.662-.723 1.662-1.6 0-.861-.72-1.565-1.619-1.597-.523-.018-.938-.423-.943-.92-.021-1.967-1.708-3.556-3.785-3.556-1.476 0-2.886.875-3.51 2.044-.245.459-.835.642-1.318.41-.482-.232-.676-.792-.43-1.25Z" fill="#fff"/><rect x="19.605" y="27.967" width="2.051" height="6.434" rx="1.025" transform="rotate(11.064 19.605 27.967)" fill="#fff"/><rect x="23.425" y="27.257" width="2.051" height="4.971" rx="1.025" transform="rotate(11.064 23.425 27.257)" fill="#fff"/><rect x="15.168" y="28.086" width="2.051" height="4.015" rx="1.025" transform="rotate(11.064 15.168 28.086)" fill="#fff"/></svg>