<svg width="44" height="44" fill="none" xmlns="http://www.w3.org/2000/svg"><circle cx="22" cy="22" r="22" fill="#6694BF"/><path d="m33.758 26.76-2.486-1.429 1.106-.298a1.242 1.242 0 1 0-.646-2.399l-3.505.945-3.369-1.952 3.369-1.951 3.505.945h.323a1.253 1.253 0 1 0 .323-2.486l-1.106-.236 2.486-1.43a1.248 1.248 0 0 0-1.243-2.163l-2.685 1.567.373-1.38a1.242 1.242 0 1 0-2.399-.646l-1.02 3.728-3.169 1.902v-3.89l2.573-2.573a1.243 1.243 0 1 0-1.765-1.753l-.808.808V9.198a1.243 1.243 0 1 0-2.485 0v3.07l-1.007-1.007a1.243 1.243 0 1 0-1.765 1.753l2.771 2.772v3.728l-3.194-1.889-1.02-3.729a1.244 1.244 0 0 0-2.297-.32 1.243 1.243 0 0 0-.101.967l.398 1.33-2.685-1.542a1.248 1.248 0 0 0-1.243 2.163l2.486 1.405-1.044.323a1.254 1.254 0 0 0 .323 2.486h.323l3.505-.945 3.307 1.864-3.369 1.952-3.505-.945a1.241 1.241 0 0 0-1.455 1.872 1.242 1.242 0 0 0 .87.527l1.107.298-2.486 1.43a1.248 1.248 0 0 0 1.243 2.162l2.623-1.54-.373 1.379a1.242 1.242 0 0 0 .857 1.566c.108.012.216.012.324 0a1.243 1.243 0 0 0 1.243-.92l1.019-3.729 3.145-1.901v3.89l-2.573 2.573a1.243 1.243 0 0 0 0 1.753 1.244 1.244 0 0 0 .882.372 1.244 1.244 0 0 0 .883-.372l.808-.808v2.87a1.243 1.243 0 1 0 2.485 0v-3.07l1.007 1.008a1.243 1.243 0 1 0 1.765-1.753l-2.772-2.772V23.74l3.195 1.852 1.019 3.73a1.243 1.243 0 0 0 1.243.919c.107.012.216.012.323 0a1.245 1.245 0 0 0 .883-1.529l-.448-1.33 2.66 1.541a1.247 1.247 0 1 0 1.243-2.162h.025Z" fill="#fff"/></svg>