<svg width="44" height="44" fill="none" xmlns="http://www.w3.org/2000/svg"><circle cx="22" cy="22" r="22" fill="#6694BF"/><path d="m14.468 27.842-.883.883a1.243 1.243 0 0 0 0 1.752 1.243 1.243 0 0 0 1.753 0l.882-.882a1.243 1.243 0 0 0-1.752-1.753Zm-.796-6.214a1.243 1.243 0 0 0-1.243-1.243h-1.243a1.243 1.243 0 1 0 0 2.486h1.243a1.243 1.243 0 0 0 1.243-1.243Zm8.7-8.7a1.243 1.243 0 0 0 1.244-1.244v-1.243a1.243 1.243 0 0 0-2.486 0v1.243a1.243 1.243 0 0 0 1.243 1.243Zm-7.904 2.547a1.242 1.242 0 0 0 1.752 0 1.243 1.243 0 0 0 0-1.752l-.882-.883a1.243 1.243 0 0 0-1.753 1.753l.883.882Zm14.915.36c.326 0 .639-.13.87-.36l.882-.882a1.242 1.242 0 0 0-1.35-2.063c-.154.074-.29.18-.402.31l-.796.883a1.243 1.243 0 0 0 0 1.752c.22.218.512.347.82.36h-.024Zm4.176 4.55h-1.243a1.243 1.243 0 1 0 0 2.486h1.243a1.243 1.243 0 0 0 0-2.486Zm-11.186 9.943a1.243 1.243 0 0 0-1.243 1.243v1.243a1.243 1.243 0 0 0 2.486 0v-1.243a1.243 1.243 0 0 0-1.243-1.243Zm7.905-2.486a1.242 1.242 0 0 0-1.69 1.69l.882.883a1.243 1.243 0 0 0 1.753 0 1.243 1.243 0 0 0 0-1.752l-.945-.82Zm-7.905-13.05a6.836 6.836 0 1 0 6.836 6.836 6.849 6.849 0 0 0-6.836-6.837Zm0 11.186a4.35 4.35 0 1 1 0-8.7 4.35 4.35 0 0 1 0 8.7Z" fill="#fff"/></svg>