<svg xmlns="http://www.w3.org/2000/svg" width="243" height="197" fill="none"><g clip-path="url(#a)"><g filter="url(#b)"><path fill="url(#c)" d="M144.347 164C185.025 164 218 131.093 218 90.5S185.025 17 144.347 17c-40.678 0-73.653 32.907-73.653 73.5s32.975 73.5 73.653 73.5Z" shape-rendering="crispEdges"/></g><g filter="url(#d)" opacity=".5"><path fill="url(#e)" fill-rule="evenodd" d="M70.475 148.624H128.577c8.444 0 15.288-6.845 15.288-15.288 0-8.257-6.546-14.985-14.732-15.278-.152-14.97-12.36-27.058-27.397-27.058-10.952 0-20.403 6.412-24.789 15.679a21.542 21.542 0 0 0-6.44-.979C58.629 105.7 49 115.309 49 127.162c0 11.558 9.155 20.982 20.623 21.444v.018h.852Z" clip-rule="evenodd"/></g><g filter="url(#f)" opacity=".5"><path fill="url(#g)" fill-rule="evenodd" d="M206.652 65.79c-3.821 5.011-9.86 8.246-16.657 8.246a20.886 20.886 0 0 1-15.751-7.138 11.168 11.168 0 0 1-5.167 1.258c-6.183 0-11.195-5.002-11.195-11.172 0-6.17 5.012-11.172 11.195-11.172.442 0 .878.026 1.306.075 2.959-7.941 10.623-13.599 19.612-13.599 6.797 0 12.836 3.235 16.657 8.246a13.276 13.276 0 0 1 3.966-.602c7.322 0 13.257 5.923 13.257 13.23s-5.935 13.23-13.257 13.23c-1.382 0-2.714-.21-3.966-.602Z" clip-rule="evenodd"/></g><g filter="url(#h)" opacity=".5"><path fill="url(#i)" fill-rule="evenodd" d="M36.212 86.782a15.52 15.52 0 0 1-12.368 6.122 15.506 15.506 0 0 1-11.695-5.3 8.288 8.288 0 0 1-3.836.934C3.721 88.538 0 84.824 0 80.243c0-4.581 3.722-8.295 8.313-8.295.327 0 .65.019.969.056 2.197-5.897 7.888-10.098 14.562-10.098 5.046 0 9.53 2.402 12.368 6.123a9.858 9.858 0 0 1 2.944-.447c5.437 0 9.844 4.398 9.844 9.823 0 5.426-4.407 9.824-9.844 9.824a9.875 9.875 0 0 1-2.944-.447Z" clip-rule="evenodd"/></g></g><defs><linearGradient id="c" x1="60.5" x2="171.054" y1="17" y2="159.08" gradientUnits="userSpaceOnUse"><stop stop-color="#FFEDAE" stop-opacity=".1"/><stop offset=".47" stop-color="#FFDC82" stop-opacity=".534"/><stop offset="1" stop-color="#FFB442"/></linearGradient><linearGradient id="e" x1="129.134" x2="78.274" y1="142.744" y2="90.894" gradientUnits="userSpaceOnUse"><stop stop-color="#D0EBFF"/><stop offset="1" stop-color="#fff" stop-opacity=".21"/></linearGradient><linearGradient id="g" x1="213.627" x2="176.781" y1="69.776" y2="33.708" gradientUnits="userSpaceOnUse"><stop stop-color="#D0EBFF"/><stop offset="1" stop-color="#fff" stop-opacity=".21"/></linearGradient><linearGradient id="i" x1="41.391" x2="14.033" y1="89.741" y2="62.961" gradientUnits="userSpaceOnUse"><stop stop-color="#C1E5FF"/><stop offset="1" stop-color="#CCF0FF" stop-opacity=".21"/></linearGradient><filter id="b" width="247.306" height="247" x="20.694" y="-32" color-interpolation-filters="sRGB" filterUnits="userSpaceOnUse"><feFlood flood-opacity="0" result="BackgroundImageFix"/><feColorMatrix in="SourceAlpha" result="hardAlpha" values="0 0 0 0 0 0 0 0 0 0 0 0 0 0 0 0 0 0 127 0"/><feOffset dx="2" dy="1"/><feGaussianBlur stdDeviation="15.5"/><feComposite in2="hardAlpha" operator="out"/><feColorMatrix values="0 0 0 0 0.40125 0 0 0 0 0.580754 0 0 0 0 0.75 0 0 0 0.15 0"/><feBlend in2="BackgroundImageFix" result="effect1_dropShadow_12_774"/><feColorMatrix in="SourceAlpha" result="hardAlpha" values="0 0 0 0 0 0 0 0 0 0 0 0 0 0 0 0 0 0 127 0"/><feOffset dy="1"/><feGaussianBlur stdDeviation="25"/><feComposite in2="hardAlpha" operator="out"/><feColorMatrix values="0 0 0 0 0.705472 0 0 0 0 0.84346 0 0 0 0 0.970833 0 0 0 0.35 0"/><feBlend in2="effect1_dropShadow_12_774" result="effect2_dropShadow_12_774"/><feBlend in="SourceGraphic" in2="effect2_dropShadow_12_774" result="shape"/></filter><filter id="d" width="102.865" height="65.624" x="45" y="87" color-interpolation-filters="sRGB" filterUnits="userSpaceOnUse"><feFlood flood-opacity="0" result="BackgroundImageFix"/><feGaussianBlur in="BackgroundImageFix" stdDeviation="2"/><feComposite in2="SourceAlpha" operator="in" result="effect1_backgroundBlur_12_774"/><feBlend in="SourceGraphic" in2="effect1_backgroundBlur_12_774" result="shape"/></filter><filter id="f" width="73.993" height="49.748" x="153.882" y="28.288" color-interpolation-filters="sRGB" filterUnits="userSpaceOnUse"><feFlood flood-opacity="0" result="BackgroundImageFix"/><feGaussianBlur in="BackgroundImageFix" stdDeviation="2"/><feComposite in2="SourceAlpha" operator="in" result="effect1_backgroundBlur_12_774"/><feBlend in="SourceGraphic" in2="effect1_backgroundBlur_12_774" result="shape"/></filter><filter id="h" width="57" height="38.998" x="-4" y="57.906" color-interpolation-filters="sRGB" filterUnits="userSpaceOnUse"><feFlood flood-opacity="0" result="BackgroundImageFix"/><feGaussianBlur in="BackgroundImageFix" stdDeviation="2"/><feComposite in2="SourceAlpha" operator="in" result="effect1_backgroundBlur_12_774"/><feBlend in="SourceGraphic" in2="effect1_backgroundBlur_12_774" result="shape"/></filter><clipPath id="a"><path fill="#fff" d="M0 0h243v197H0z"/></clipPath></defs></svg>