<svg width="40" height="40" viewBox="0 0 40 40" fill="none" xmlns="http://www.w3.org/2000/svg"><path fill-rule="evenodd" clip-rule="evenodd" d="M20 28.889c4.11 0 6.667-2.746 6.667-5.252 0-1.645-.886-3.983-2.385-6.596-1.372-2.392-3.053-4.67-4.346-6.297-1.281 1.532-2.921 3.675-4.256 6.002-1.445 2.52-2.347 4.938-2.347 6.89 0 2.507 2.557 5.253 6.667 5.253Zm0 2.667c5.155 0 9.333-3.546 9.333-7.92 0-4.769-4.797-11.421-7.512-14.806-.961-1.197-2.716-1.233-3.708-.062-2.727 3.22-7.446 9.559-7.446 14.869 0 4.373 4.178 7.919 9.333 7.919Z" fill="#fff"/></svg>