<svg width="471" height="381" viewBox="0 0 243 197" fill="none" xmlns="http://www.w3.org/2000/svg"><g opacity=".2" clip-path="url(#a)"><g filter="url(#b)"><path fill-rule="evenodd" clip-rule="evenodd" d="M144.347 160C182.823 160 214 128.876 214 90.5c0-8.488-1.525-16.62-4.317-24.14a13.474 13.474 0 0 0 4.128-.354A73.241 73.241 0 0 1 218 90.5c0 40.593-32.975 73.5-73.653 73.5-16.985 0-32.627-5.737-45.087-15.376h6.885C117.113 155.816 130.239 160 144.347 160Zm0-143c16.939 0 32.543 5.706 44.986 15.298-1.92.06-3.775.377-5.53.92C172.587 25.512 158.996 21 144.347 21c-38.476 0-69.653 31.124-69.653 69.5 0 5.529.647 10.907 1.87 16.063a21.485 21.485 0 0 0-4.278-.791A73.648 73.648 0 0 1 70.694 90.5c0-40.593 32.976-73.5 73.653-73.5Z" fill="#1F2D5E"/></g><g filter="url(#c)"><path d="M207.248 63.881a2 2 0 0 0-2.187.696 18.898 18.898 0 0 1-15.066 7.46 18.886 18.886 0 0 1-14.247-6.457 2 2 0 0 0-2.427-.457 9.168 9.168 0 0 1-4.244 1.033c-5.082 0-9.195-4.11-9.195-9.172s4.113-9.172 9.195-9.172c.365 0 .724.021 1.076.062a2 2 0 0 0 2.104-1.288c2.676-7.183 9.609-12.298 17.738-12.298a18.898 18.898 0 0 1 15.066 7.459 2 2 0 0 0 2.187.696 11.275 11.275 0 0 1 3.37-.511c6.221 0 11.257 5.032 11.257 11.23s-5.036 11.23-11.257 11.23c-1.178 0-2.309-.18-3.37-.511Z" stroke="#1F2D5E" stroke-width="4" stroke-linejoin="round"/></g><g filter="url(#d)"><path d="M127.133 118.078a2 2 0 0 0 1.928 1.979c7.114.254 12.804 6.103 12.804 13.279 0 7.339-5.949 13.288-13.288 13.288H69.892a1.943 1.943 0 0 0-.189-.016C59.3 146.188 51 137.639 51 127.162c0-10.745 8.73-19.462 19.507-19.462 2.038 0 4 .312 5.843.888a2 2 0 0 0 2.405-1.053C82.822 98.942 91.585 93 101.736 93c13.943 0 25.256 11.208 25.397 25.078Z" stroke="#1F2D5E" stroke-width="4" stroke-linejoin="round"/></g><g filter="url(#e)"><path d="M36.807 84.873a2 2 0 0 0-2.186.696 13.52 13.52 0 0 1-10.777 5.335 13.506 13.506 0 0 1-10.191-4.618 2 2 0 0 0-2.427-.456 6.288 6.288 0 0 1-2.914.708C4.822 86.538 2 83.716 2 80.243c0-3.472 2.822-6.295 6.313-6.295.25 0 .497.015.738.043a2 2 0 0 0 2.105-1.289 13.536 13.536 0 0 1 12.688-8.795c4.397 0 8.303 2.09 10.777 5.335a2 2 0 0 0 2.187.696 7.855 7.855 0 0 1 2.348-.356c4.336 0 7.844 3.507 7.844 7.823 0 4.318-3.508 7.824-7.844 7.824-.82 0-1.609-.125-2.349-.356Z" stroke="#1F2D5E" stroke-width="4" stroke-linejoin="round"/></g><path d="M135 93c1.563-1.87 5.569-5.476 9.086-4.948 3.517.528 6.742 3.519 7.914 4.948M118 80v5M169 80v5" stroke="#1F2D5E" stroke-width="4" stroke-linecap="round"/></g><defs><filter id="b" x="20.694" y="-32" width="247.306" height="247" filterUnits="userSpaceOnUse" color-interpolation-filters="sRGB"><feFlood flood-opacity="0" result="BackgroundImageFix"/><feColorMatrix in="SourceAlpha" values="0 0 0 0 0 0 0 0 0 0 0 0 0 0 0 0 0 0 127 0" result="hardAlpha"/><feOffset dx="2" dy="1"/><feGaussianBlur stdDeviation="15.5"/><feComposite in2="hardAlpha" operator="out"/><feColorMatrix values="0 0 0 0 0.40125 0 0 0 0 0.580754 0 0 0 0 0.75 0 0 0 0.15 0"/><feBlend in2="BackgroundImageFix" result="effect1_dropShadow_193_4186"/><feColorMatrix in="SourceAlpha" values="0 0 0 0 0 0 0 0 0 0 0 0 0 0 0 0 0 0 127 0" result="hardAlpha"/><feOffset dy="1"/><feGaussianBlur stdDeviation="25"/><feComposite in2="hardAlpha" operator="out"/><feColorMatrix values="0 0 0 0 0.705472 0 0 0 0 0.84346 0 0 0 0 0.970833 0 0 0 0.35 0"/><feBlend in2="effect1_dropShadow_193_4186" result="effect2_dropShadow_193_4186"/><feBlend in="SourceGraphic" in2="effect2_dropShadow_193_4186" result="shape"/></filter><filter id="c" x="153.882" y="28.288" width="73.993" height="49.748" filterUnits="userSpaceOnUse" color-interpolation-filters="sRGB"><feFlood flood-opacity="0" result="BackgroundImageFix"/><feGaussianBlur in="BackgroundImageFix" stdDeviation="2"/><feComposite in2="SourceAlpha" operator="in" result="effect1_backgroundBlur_193_4186"/><feBlend in="SourceGraphic" in2="effect1_backgroundBlur_193_4186" result="shape"/></filter><filter id="d" x="45" y="87" width="102.865" height="65.624" filterUnits="userSpaceOnUse" color-interpolation-filters="sRGB"><feFlood flood-opacity="0" result="BackgroundImageFix"/><feGaussianBlur in="BackgroundImageFix" stdDeviation="2"/><feComposite in2="SourceAlpha" operator="in" result="effect1_backgroundBlur_193_4186"/><feBlend in="SourceGraphic" in2="effect1_backgroundBlur_193_4186" result="shape"/></filter><filter id="e" x="-4" y="57.907" width="57" height="38.998" filterUnits="userSpaceOnUse" color-interpolation-filters="sRGB"><feFlood flood-opacity="0" result="BackgroundImageFix"/><feGaussianBlur in="BackgroundImageFix" stdDeviation="2"/><feComposite in2="SourceAlpha" operator="in" result="effect1_backgroundBlur_193_4186"/><feBlend in="SourceGraphic" in2="effect1_backgroundBlur_193_4186" result="shape"/></filter><clipPath id="a"><path fill="#fff" d="M0 0h243v197H0z"/></clipPath></defs></svg>