<svg width="243" height="197" viewBox="0 0 243 197" fill="none" xmlns="http://www.w3.org/2000/svg">
<g opacity="0.2" clip-path="url(#clip0_301_6495)">
<g filter="url(#filter0_dd_301_6495)">
<path fill-rule="evenodd" clip-rule="evenodd" d="M236.306 107.5C236.306 92.3821 231.733 78.3302 223.891 66.6472C222.941 67.5932 221.901 68.4486 220.784 69.1992C228.066 80.1817 232.306 93.3478 232.306 107.5C232.306 145.876 201.129 177 162.653 177C145.836 177 130.413 171.054 118.378 161.155C117.41 162.122 116.312 162.96 115.113 163.641C127.942 174.471 144.534 181 162.653 181C203.331 181 236.306 148.093 236.306 107.5ZM89.021 109.272C89.007 108.683 89 108.092 89 107.5C89 66.9071 121.976 34 162.653 34C173.043 34 182.93 36.1467 191.893 40.0198C191.132 41.1188 190.474 42.2943 189.933 43.5322C181.555 39.9709 172.335 38 162.653 38C124.177 38 93 69.1241 93 107.5C93 108.649 93.028 109.792 93.0832 110.927C91.7851 110.272 90.4276 109.717 89.021 109.272Z" fill="#1F2D5E"/>
</g>
<g filter="url(#filter1_b_301_6495)">
<path d="M226.366 62.5929C225.564 62.3421 224.69 62.6203 224.18 63.2892C220.721 67.8248 215.261 70.748 209.113 70.748C203.43 70.748 198.336 68.251 194.866 64.2916C194.259 63.5987 193.257 63.4103 192.439 63.8353C191.172 64.4944 189.73 64.868 188.195 64.868C183.113 64.868 179 60.7577 179 55.696C179 50.6342 183.113 46.524 188.195 46.524C188.56 46.524 188.919 46.5451 189.271 46.5858C190.185 46.6918 191.054 46.16 191.375 45.2974C194.051 38.1151 200.984 33 209.113 33C215.261 33 220.721 35.9231 224.18 40.4587C224.69 41.1276 225.564 41.4058 226.366 41.155C227.428 40.8234 228.559 40.6439 229.736 40.6439C235.957 40.6439 240.993 45.6756 240.993 51.874C240.993 58.0723 235.957 63.104 229.736 63.104C228.559 63.104 227.428 62.9245 226.366 62.5929Z" stroke="#1F2D5E" stroke-width="4" stroke-linejoin="round"/>
</g>
<g filter="url(#filter2_b_301_6495)">
<path d="M106.133 135.078C106.144 136.147 106.993 137.018 108.061 137.057C115.175 137.311 120.865 143.16 120.865 150.336C120.865 157.675 114.916 163.624 107.577 163.624H49.5385H49.5384H49.5384H49.5383H49.5382H49.5382H49.5381H49.5381H49.538H49.5379H49.5379H49.5378H49.5378H49.5377H49.5376H49.5376H49.5375H49.5374H49.5374H49.5373H49.5373H49.5372H49.5371H49.5371H49.537H49.5369H49.5369H49.5368H49.5368H49.5367H49.5366H49.5366H49.5365H49.5364H49.5364H49.5363H49.5363H49.5362H49.5361H49.5361H49.536H49.536H49.5359H49.5358H49.5358H49.5357H49.5356H49.5356H49.5355H49.5355H49.5354H49.5353H49.5353H49.5352H49.5351H49.5351H49.535H49.535H49.5349H49.5348H49.5348H49.5347H49.5346H49.5346H49.5345H49.5345H49.5344H49.5343H49.5343H49.5342H49.5342H49.5341H49.534H49.534H49.5339H49.5338H49.5338H49.5337H49.5337H49.5336H49.5335H49.5335H49.5334H49.5333H49.5333H49.5332H49.5332H49.5331H49.533H49.533H49.5329H49.5328H49.5328H49.5327H49.5327H49.5326H49.5325H49.5325H49.5324H49.5323H49.5323H49.5322H49.5322H49.5321H49.532H49.532H49.5319H49.5319H49.5318H49.5317H49.5317H49.5316H49.5315H49.5315H49.5314H49.5314H49.5313H49.5312H49.5312H49.5311H49.531H49.531H49.5309H49.5309H49.5308H49.5307H49.5307H49.5306H49.5305H49.5305H49.5304H49.5304H49.5303H49.5302H49.5302H49.5301H49.5301H49.53H49.5299H49.5299H49.5298H49.5297H49.5297H49.5296H49.5296H49.5295H49.5294H49.5294H49.5293H49.5292H49.5292H49.5291H49.5291H49.529H49.5289H49.5289H49.5288H49.5287H49.5287H49.5286H49.5286H49.5285H49.5284H49.5284H49.5283H49.5282H49.5282H49.5281H49.5281H49.528H49.5279H49.5279H49.5278H49.5278H49.5277H49.5276H49.5276H49.5275H49.5274H49.5274H49.5273H49.5273H49.5272H49.5271H49.5271H49.527H49.5269H49.5269H49.5268H49.5268H49.5267H49.5266H49.5266H49.5265H49.5264H49.5264H49.5263H49.5263H49.5262H49.5261H49.5261H49.526H49.526H49.5259H49.5258H49.5258H49.5257H49.5256H49.5256H49.5255H49.5255H49.5254H49.5253H49.5253H49.5252H49.5251H49.5251H49.525H49.525H49.5249H49.5248H49.5248H49.5247H49.5246H49.5246H49.5245H49.5245H49.5244H49.5243H49.5243H49.5242H49.5242H49.5241H49.524H49.524H49.5239H49.5238H49.5238H49.5237H49.5237H49.5236H49.5235H49.5235H49.5234H49.5233H49.5233H49.5232H49.5232H49.5231H49.523H49.523H49.5229H49.5228H49.5228H49.5227H49.5227H49.5226H49.5225H49.5225H49.5224H49.5224H49.5223H49.5222H49.5222H49.5221H49.522H49.522H49.5219H49.5219H49.5218H49.5217H49.5217H49.5216H49.5215H49.5215H49.5214H49.5214H49.5213H49.5212H49.5212H49.5211H49.521H49.521H49.5209H49.5209H49.5208H49.5207H49.5207H49.5206H49.5205H49.5205H49.5204H49.5204H49.5203H49.5202H49.5202H49.5201H49.5201H49.52H49.5199H49.5199H49.5198H49.5197H49.5197H49.5196H49.5196H49.5195H49.5194H49.5194H49.5193H49.5192H49.5192H49.5191H49.5191H49.519H49.5189H49.5189H49.5188H49.5187H49.5187H49.5186H49.5186H49.5185H49.5184H49.5184H49.5183H49.5183H49.5182H49.5181H49.5181H49.518H49.5179H49.5179H49.5178H49.5178H49.5177H49.5176H49.5176H49.5175H49.5174H49.5174H49.5173H49.5173H49.5172H49.5171H49.5171H49.517H49.5169H49.5169H49.5168H49.5168H49.5167H49.5166H49.5166H49.5165H49.5164H49.5164H49.5163H49.5163H49.5162H49.5161H49.5161H49.516H49.516H49.5159H49.5158H49.5158H49.5157H49.5156H49.5156H49.5155H49.5155H49.5154H49.5153H49.5153H49.5152H49.5151H49.5151H49.515H49.515H49.5149H49.5148H49.5148H49.5147H49.5146H49.5146H49.5145H49.5145H49.5144H49.5143H49.5143H49.5142H49.5142H49.5141H49.514H49.514H49.5139H49.5138H49.5138H49.5137H49.5137H49.5136H49.5135H49.5135H49.5134H49.5133H49.5133H49.5132H49.5132H49.5131H49.513H49.513H49.5129H49.5128H49.5128H49.5127H49.5127H49.5126H49.5125H49.5125H49.5124H49.5124H49.5123H49.5122H49.5122H49.5121H49.512H49.512H49.5119H49.5119H49.5118H49.5117H49.5117H49.5116H49.5115H49.5115H49.5114H49.5114H49.5113H49.5112H49.5112H49.5111H49.511H49.511H49.5109H49.5109H49.5108H49.5107H49.5107H49.5106H49.5105H49.5105H49.5104H49.5104H49.5103H49.5102H49.5102H49.5101H49.5101H49.51H49.5099H49.5099H49.5098H49.5097H49.5097H49.5096H49.5096H49.5095H49.5094H49.5094H49.5093H49.5092H49.5092H49.5091H49.5091H49.509H49.5089H49.5089H49.5088H49.5087H49.5087H49.5086H49.5086H49.5085H49.5084H49.5084H49.5083H49.5083H49.5082H49.5081H49.5081H49.508H49.5079H49.5079H49.5078H49.5078H49.5077H49.5076H49.5076H49.5075H49.5074H49.5074H49.5073H49.5073H49.5072H49.5071H49.5071H49.507H49.5069H49.5069H49.5068H49.5068H49.5067H49.5066H49.5066H49.5065H49.5065H49.5064H49.5063H49.5063H49.5062H49.5061H49.5061H49.506H49.506H49.5059H49.5058H49.5058H49.5057H49.5056H49.5056H49.5055H49.5055H49.5054H49.5053H49.5053H49.5052H49.5051H49.5051H49.505H49.505H49.5049H49.5048H49.5048H49.5047H49.5047H49.5046H49.5045H49.5045H49.5044H49.5043H49.5043H49.5042H49.5042H49.5041H49.504H49.504H49.5039H49.5038H49.5038H49.5037H49.5037H49.5036H49.5035H49.5035H49.5034H49.5033H49.5033H49.5032H49.5032H49.5031H49.503H49.503H49.5029H49.5029H49.5028H49.5027H49.5027H49.5026H49.5025H49.5025H49.5024H49.5024H49.5023H49.5022H49.5022H49.5021H49.502H49.502H49.5019H49.5019H49.5018H49.5017H49.5017H49.5016H49.5016H49.5015H49.5014H49.5014H49.5013H49.5012H49.5012H49.5011H49.5011H49.501H49.5009H49.5009H49.5008H49.5007H49.5007H49.5006H49.5006H49.5005H49.5004H49.5004H49.5003H49.5002H49.5002H49.5001H49.5001H49.5H49.4999H49.4999H49.4998H49.4998H49.4997H49.4996H49.4996H49.4995H49.4994H49.4994H49.4993H49.4993H49.4992H49.4991H49.4991H49.499H49.4989H49.4989H49.4988H49.4988H49.4987H49.4986H49.4986H49.4985H49.4985H49.4984H49.4983H49.4983H49.4982H49.4981H49.4981H49.498H49.498H49.4979H49.4978H49.4978H49.4977H49.4977H49.4976H49.4975H49.4975H49.4974H49.4973H49.4973H49.4972H49.4972H49.4971H49.497H49.497H49.4969H49.4968H49.4968H49.4967H49.4967H49.4966H49.4965H49.4965H49.4964H49.4964H49.4963H49.4962H49.4962H49.4961H49.496H49.496H49.4959H49.4959H49.4958H49.4957H49.4957H49.4956H49.4955H49.4955H49.4954H49.4954H49.4953H49.4952H49.4952H49.4951H49.4951H49.495H49.4949H49.4949H49.4948H49.4947H49.4947H49.4946H49.4946H49.4945H49.4944H49.4944H49.4943H49.4942H49.4942H49.4941H49.4941H49.494H49.4939H49.4939H49.4938H49.4938H49.4937H49.4936H49.4936H49.4935H49.4934H49.4934H49.4933H49.4933H49.4932H49.4931H49.4931H49.493H49.493H49.4929H49.4928H49.4928H49.4927H49.4926H49.4926H49.4925H49.4925H49.4924H49.4923H49.4923H49.4922H49.4921H49.4921H49.492H49.492H49.4919H49.4918H49.4918H49.4917H49.4917H49.4916H49.4915H49.4915H49.4914H49.4913H49.4913H49.4912H49.4912H49.4911H49.491H49.491H49.4909H49.4908H49.4908H49.4907H49.4907H49.4906H49.4905H49.4905H49.4904H49.4904H49.4903H49.4902H49.4902H49.4901H49.49H49.49H49.4899H49.4899H49.4898H49.4897H49.4897H49.4896H49.4895H49.4895H49.4894H49.4894H49.4893H49.4892H49.4892H49.4891H49.4891H49.489H49.4889H49.4889H49.4888H49.4887H49.4887H49.4886H49.4886H49.4885H49.4884H49.4884H49.4883H49.4883H49.4882H49.4881H49.4881H49.488H49.4879H49.4879H49.4878H49.4878H49.4877H49.4876H49.4876H49.4875H49.4874H49.4874H49.4873H49.4873H49.4872H49.4871H49.4871H49.487H49.487H49.4869H49.4868H49.4868H49.4867H49.4866H49.4866H49.4865H49.4865H49.4864H49.4863H49.4863H49.4862H49.4862H49.4861H49.486H49.486H49.4859H49.4858H49.4858H49.4857H49.4857H49.4856H49.4855H49.4855H49.4854H49.4853H49.4853H49.4852H49.4852H49.4851H49.485H49.485H49.4849H49.4849H49.4848H49.4847H49.4847H49.4846H49.4845H49.4845H49.4844H49.4844H49.4843H49.4842H49.4842H49.4841H49.484H49.484H49.4839H49.4839H49.4838H49.4837H49.4837H49.4836H49.4836H49.4835H49.4834H49.4834H49.4833H49.4832H49.4832H49.4831H49.4831H49.483H49.4829H49.4829H49.4828H49.4827H49.4827H49.4826H49.4826H49.4825H49.4824H49.4824H49.4823H49.4823H49.4822H49.4821H49.4821H49.482H49.4819H49.4819H49.4818H49.4818H49.4817H49.4816H49.4816H49.4815H49.4814H49.4814H49.4813H49.4813H49.4812H49.4811H49.4811H49.481H49.481H49.4809H49.4808H49.4808H49.4807H49.4806H49.4806H49.4805H49.4805H49.4804H49.4803H49.4803H49.4802H49.4801H49.4801H49.48H49.48H49.4799H49.4798H49.4798H49.4797H49.4797H49.4796H49.4795H49.4795H49.4794H49.4793H49.4793H49.4792H49.4792H49.4791H49.479H49.479H49.4789H49.4788H49.4788H49.4787H49.4787H49.4786H49.4785H49.4785H49.4784H49.4783H49.4783H49.4782H49.4782H49.4781H49.478H49.478H49.4779H49.4779H49.4778H49.4777H49.4777H49.4776H49.4775H49.4775H49.4774H49.4774H49.4773H49.4772H49.4772H49.4771H49.477H49.477H49.4769H49.4769H49.4768H49.4767H49.4767H49.4766H49.4766H49.4765H49.4764H49.4764H49.4763H49.4762H49.4762H49.4761H49.4761H49.476H49.4759H49.4759H49.4758H49.4757H49.4757H49.4756H49.4756H49.4755H49.4754H49.4754H49.4753H49.4752H49.4752H49.4751H49.4751H49.475H48.8916C48.8297 163.616 48.767 163.61 48.7034 163.608C38.2998 163.188 30 154.639 30 144.162C30 133.417 38.7295 124.7 49.5067 124.7C51.5455 124.7 53.5078 125.012 55.3503 125.588C56.3023 125.886 57.3283 125.436 57.755 124.535C61.8221 115.942 70.5843 110 80.736 110C94.6792 110 105.992 121.208 106.133 135.078Z" stroke="#1F2D5E" stroke-width="4" stroke-linejoin="round"/>
</g>
<path d="M163 125.5C149 124.5 157 108.989 164.086 110.052C171.172 111.116 177 126.5 163 125.5Z" stroke="#1F2D5E" stroke-width="4" stroke-linecap="round"/>
<path d="M93.1714 23.2703C95.0928 25.1443 96.6262 27.3784 97.6842 29.845C98.7422 32.3116 99.3039 34.9625 99.3374 37.6462C99.3709 40.3299 98.8755 42.994 97.8794 45.4862C96.8834 47.9785 95.4062 50.2501 93.5322 52.1715C91.6582 54.0929 89.4241 55.6263 86.9575 56.6843C84.4909 57.7422 81.84 58.304 79.1563 58.3375C76.4726 58.371 73.8085 57.8756 71.3163 56.8795C68.824 55.8834 66.5523 54.4062 64.631 52.5322" stroke="#1F2D5E" stroke-width="4"/>
<path d="M93.0345 52.5344L103.035 62.5344" stroke="#1F2D5E" stroke-width="4" stroke-linecap="round" stroke-linejoin="round"/>
<path d="M82 42L71 31" stroke="#1F2D5E" stroke-width="4" stroke-linecap="round" stroke-linejoin="round"/>
<circle cx="66.5" cy="26.5" r="4.5" stroke="#1F2D5E" stroke-width="4"/>
<path d="M83.1697 42.0965C78.9082 46.358 74.4733 49.5143 70.806 51.2055C68.9648 52.0547 67.4182 52.4874 66.2439 52.5678C65.0636 52.6486 64.5175 52.3669 64.2684 52.1178C64.0193 51.8687 63.7376 51.3226 63.8184 50.1423C63.8988 48.9679 64.3315 47.4214 65.1806 45.5802C66.8719 41.9129 70.0282 37.4779 74.2897 33.2165C78.5512 28.955 82.9861 25.7987 86.6534 24.1074C88.4946 23.2583 90.0412 22.8256 91.2155 22.7452C92.3958 22.6643 92.9419 22.9461 93.191 23.1952C93.4401 23.4443 93.7218 23.9904 93.641 25.1707C93.5606 26.345 93.1279 27.8916 92.2788 29.7328C90.5875 33.4001 87.4312 37.835 83.1697 42.0965Z" stroke="#1F2D5E" stroke-width="4"/>
<path d="M136 96V101" stroke="#1F2D5E" stroke-width="4" stroke-linecap="round"/>
<path d="M187 96V101" stroke="#1F2D5E" stroke-width="4" stroke-linecap="round"/>
<path d="M27.8082 22.2969L39.4815 27.6806L38.7945 18.8614L50.3017 22.8408" stroke="#1F2D5E" stroke-width="4" stroke-linecap="round" stroke-linejoin="round"/>
<path d="M46.9263 4.39111L49.1608 11.799L54.2301 8.3149L57.2451 15.1414" stroke="#1F2D5E" stroke-width="4" stroke-linecap="round" stroke-linejoin="round"/>
</g>
<defs>
<filter id="filter0_dd_301_6495" x="39" y="-15" width="247.306" height="247" filterUnits="userSpaceOnUse" color-interpolation-filters="sRGB">
<feFlood flood-opacity="0" result="BackgroundImageFix"/>
<feColorMatrix in="SourceAlpha" type="matrix" values="0 0 0 0 0 0 0 0 0 0 0 0 0 0 0 0 0 0 127 0" result="hardAlpha"/>
<feOffset dx="2" dy="1"/>
<feGaussianBlur stdDeviation="15.5"/>
<feComposite in2="hardAlpha" operator="out"/>
<feColorMatrix type="matrix" values="0 0 0 0 0.40125 0 0 0 0 0.580754 0 0 0 0 0.75 0 0 0 0.15 0"/>
<feBlend mode="normal" in2="BackgroundImageFix" result="effect1_dropShadow_301_6495"/>
<feColorMatrix in="SourceAlpha" type="matrix" values="0 0 0 0 0 0 0 0 0 0 0 0 0 0 0 0 0 0 127 0" result="hardAlpha"/>
<feOffset dy="1"/>
<feGaussianBlur stdDeviation="25"/>
<feComposite in2="hardAlpha" operator="out"/>
<feColorMatrix type="matrix" values="0 0 0 0 0.705472 0 0 0 0 0.84346 0 0 0 0 0.970833 0 0 0 0.35 0"/>
<feBlend mode="normal" in2="effect1_dropShadow_301_6495" result="effect2_dropShadow_301_6495"/>
<feBlend mode="normal" in="SourceGraphic" in2="effect2_dropShadow_301_6495" result="shape"/>
</filter>
<filter id="filter1_b_301_6495" x="173" y="27" width="73.993" height="49.748" filterUnits="userSpaceOnUse" color-interpolation-filters="sRGB">
<feFlood flood-opacity="0" result="BackgroundImageFix"/>
<feGaussianBlur in="BackgroundImageFix" stdDeviation="2"/>
<feComposite in2="SourceAlpha" operator="in" result="effect1_backgroundBlur_301_6495"/>
<feBlend mode="normal" in="SourceGraphic" in2="effect1_backgroundBlur_301_6495" result="shape"/>
</filter>
<filter id="filter2_b_301_6495" x="24" y="104" width="102.865" height="65.624" filterUnits="userSpaceOnUse" color-interpolation-filters="sRGB">
<feFlood flood-opacity="0" result="BackgroundImageFix"/>
<feGaussianBlur in="BackgroundImageFix" stdDeviation="2"/>
<feComposite in2="SourceAlpha" operator="in" result="effect1_backgroundBlur_301_6495"/>
<feBlend mode="normal" in="SourceGraphic" in2="effect1_backgroundBlur_301_6495" result="shape"/>
</filter>
<clipPath id="clip0_301_6495">
<rect width="243" height="197" fill="white"/>
</clipPath>
</defs>
</svg>
