<svg width="193" height="46" viewBox="0 0 193 46" fill="none" xmlns="http://www.w3.org/2000/svg"><ellipse cx="25.092" cy="22.919" rx="18.547" ry="18.553" fill="url(#a)"/><ellipse cx="15.274" cy="24.01" rx="15.274" ry="15.279" fill="url(#b)"/><path d="M67.649 37.2c-2.226 0-4.137-.38-5.734-1.139-1.597-.786-2.828-1.977-3.692-3.575-.864-1.624-1.349-3.654-1.453-6.09-.026-1.152-.04-2.253-.04-3.3 0-1.074.014-2.187.04-3.34.104-2.41.602-4.413 1.492-6.011.917-1.624 2.173-2.829 3.77-3.615 1.624-.812 3.496-1.218 5.617-1.218 2.147 0 4.02.406 5.616 1.218 1.624.786 2.894 1.99 3.81 3.615.916 1.598 1.414 3.601 1.492 6.011a73.59 73.59 0 0 1 .079 3.34c0 1.047-.026 2.148-.079 3.3-.078 2.436-.563 4.466-1.453 6.09-.864 1.598-2.094 2.79-3.692 3.575-1.597.76-3.521 1.14-5.773 1.14Zm0-3.34c2.016 0 3.653-.602 4.91-1.806 1.282-1.205 1.976-3.157 2.08-5.855.053-1.178.08-2.226.08-3.143 0-.943-.027-1.99-.08-3.143-.051-1.807-.392-3.274-1.02-4.4-.602-1.127-1.414-1.951-2.435-2.475-1.021-.524-2.2-.786-3.535-.786-1.283 0-2.435.262-3.456.786s-1.846 1.348-2.474 2.475c-.603 1.126-.943 2.593-1.022 4.4-.026 1.153-.039 2.2-.039 3.143 0 .917.013 1.965.04 3.143.104 2.698.798 4.65 2.08 5.855 1.284 1.204 2.907 1.807 4.871 1.807ZM91.48 37.2c-1.676 0-3.103-.366-4.282-1.1-1.152-.76-2.029-1.807-2.631-3.143-.602-1.336-.903-2.868-.903-4.597V17.28c0-.261.078-.47.235-.628a.909.909 0 0 1 .668-.275h1.964c.262 0 .471.092.628.275a.787.787 0 0 1 .275.629v10.883c0 3.903 1.702 5.854 5.106 5.854 1.623 0 2.92-.51 3.888-1.532.995-1.048 1.493-2.488 1.493-4.322V17.281c0-.262.078-.472.235-.629a.91.91 0 0 1 .668-.275h1.924c.288 0 .511.092.668.275.157.157.236.367.236.629v18.623a.992.992 0 0 1-.236.668c-.157.157-.38.236-.668.236h-1.806a.99.99 0 0 1-.668-.236.992.992 0 0 1-.236-.668v-1.729a8.069 8.069 0 0 1-2.592 2.2c-.995.55-2.317.825-3.967.825ZM115.459 36.808c-1.466 0-2.657-.275-3.574-.825a5 5 0 0 1-2.003-2.397c-.419-1.048-.628-2.279-.628-3.693V19.52h-3.064a.988.988 0 0 1-.667-.235.992.992 0 0 1-.236-.668V17.28c0-.262.079-.472.236-.629a.907.907 0 0 1 .667-.275h3.064V9.816c0-.262.078-.472.235-.629a.91.91 0 0 1 .668-.275h1.846c.262 0 .471.092.628.275a.784.784 0 0 1 .275.629v6.561h4.87c.262 0 .472.092.629.275a.787.787 0 0 1 .275.629v1.336a.91.91 0 0 1-.275.668c-.157.157-.367.235-.629.235h-4.87v10.098c0 1.23.21 2.2.629 2.907.419.707 1.165 1.06 2.238 1.06h2.396c.262 0 .471.093.629.276a.788.788 0 0 1 .275.629v1.414a.91.91 0 0 1-.275.668c-.158.157-.367.236-.629.236h-2.71ZM129.898 37.2c-1.467 0-2.723-.183-3.771-.55-1.047-.366-1.898-.811-2.553-1.335-.654-.524-1.152-1.048-1.492-1.572-.314-.524-.484-.943-.511-1.257-.026-.288.066-.511.275-.668.21-.157.419-.236.629-.236h1.728c.157 0 .275.026.353.079.105.026.236.13.393.314.34.367.72.733 1.139 1.1.419.367.93.668 1.532.904.628.236 1.401.353 2.317.353 1.335 0 2.435-.248 3.299-.746.864-.524 1.296-1.283 1.296-2.279 0-.655-.183-1.179-.55-1.571-.34-.393-.969-.747-1.885-1.061-.89-.315-2.121-.642-3.692-.983-1.571-.366-2.814-.811-3.731-1.335-.916-.55-1.571-1.192-1.964-1.925-.392-.76-.589-1.611-.589-2.554 0-.97.288-1.9.864-2.79.576-.917 1.414-1.663 2.514-2.24 1.126-.576 2.527-.864 4.202-.864 1.362 0 2.527.17 3.496.511.969.34 1.767.773 2.396 1.297.628.497 1.099.995 1.413 1.493.315.497.485.916.511 1.257a.788.788 0 0 1-.236.668.936.936 0 0 1-.628.235h-1.65a.899.899 0 0 1-.471-.117 2.936 2.936 0 0 1-.314-.275 8.352 8.352 0 0 0-.943-1.022c-.34-.34-.798-.615-1.374-.825-.55-.236-1.283-.354-2.2-.354-1.309 0-2.291.275-2.945.825-.655.55-.982 1.245-.982 2.083 0 .497.144.943.432 1.336.288.393.838.746 1.649 1.06.812.315 2.016.655 3.614 1.022 1.728.34 3.089.799 4.084 1.375.995.576 1.702 1.244 2.121 2.004.419.76.629 1.637.629 2.632 0 1.1-.328 2.109-.982 3.026-.629.916-1.571 1.65-2.828 2.2-1.231.524-2.762.785-4.595.785ZM143.753 36.808a.991.991 0 0 1-.668-.236.992.992 0 0 1-.236-.668V17.281c0-.262.079-.472.236-.629a.909.909 0 0 1 .668-.275h1.885c.262 0 .471.092.628.275.157.157.236.367.236.629v18.623a.992.992 0 0 1-.236.668c-.157.157-.366.236-.628.236h-1.885Zm-.315-24.242a.99.99 0 0 1-.667-.236.992.992 0 0 1-.236-.668V9.541c0-.262.079-.472.236-.629a.908.908 0 0 1 .667-.275h2.475c.261 0 .471.092.628.275a.787.787 0 0 1 .275.629v2.121a.91.91 0 0 1-.275.668c-.157.158-.367.236-.628.236h-2.475ZM159.823 37.2c-1.44 0-2.683-.248-3.731-.746-1.047-.524-1.911-1.218-2.592-2.082a9.9 9.9 0 0 1-1.492-3.026 15.633 15.633 0 0 1-.55-3.575c-.026-.419-.039-.812-.039-1.179 0-.366.013-.76.039-1.178.052-1.231.235-2.41.55-3.536a9.9 9.9 0 0 1 1.492-3.026 6.982 6.982 0 0 1 2.592-2.082c1.048-.524 2.291-.786 3.731-.786 1.545 0 2.828.275 3.849.825 1.021.55 1.859 1.231 2.514 2.043V9.816c0-.262.078-.472.236-.629a.907.907 0 0 1 .667-.275h1.885c.262 0 .472.092.629.275a.787.787 0 0 1 .275.629v26.088a.91.91 0 0 1-.275.668c-.157.157-.367.236-.629.236h-1.767c-.288 0-.51-.079-.668-.236a.992.992 0 0 1-.235-.668v-1.65c-.655.838-1.506 1.545-2.553 2.121-1.047.55-2.357.825-3.928.825Zm.825-3.182c1.309 0 2.357-.301 3.142-.904a5.605 5.605 0 0 0 1.768-2.278 7.98 7.98 0 0 0 .628-2.868c.026-.42.039-.917.039-1.494 0-.602-.013-1.113-.039-1.532a6.77 6.77 0 0 0-.668-2.71 5.259 5.259 0 0 0-1.806-2.2c-.786-.577-1.807-.865-3.064-.865-1.335 0-2.396.301-3.181.903-.786.577-1.349 1.35-1.689 2.319a10.44 10.44 0 0 0-.589 3.064c-.026.76-.026 1.52 0 2.279.052 1.1.249 2.134.589 3.104.34.943.903 1.715 1.689 2.318.785.576 1.846.864 3.181.864ZM183.849 37.2c-2.697 0-4.844-.825-6.441-2.475-1.597-1.676-2.474-3.955-2.632-6.836-.026-.34-.039-.773-.039-1.297 0-.55.013-.995.039-1.335.105-1.86.537-3.484 1.296-4.872.76-1.415 1.794-2.502 3.103-3.261 1.336-.76 2.893-1.14 4.674-1.14 1.99 0 3.653.42 4.988 1.258 1.361.838 2.396 2.03 3.103 3.575.707 1.545 1.06 3.353 1.06 5.422v.668c0 .288-.092.51-.275.668-.157.157-.366.235-.628.235h-13.589v.354a8.402 8.402 0 0 0 .706 3.025 5.628 5.628 0 0 0 1.807 2.24c.786.576 1.728.864 2.828.864.943 0 1.728-.144 2.356-.432.629-.288 1.139-.602 1.532-.943.393-.367.655-.642.786-.825.235-.34.419-.537.55-.59.13-.078.34-.117.628-.117h1.885c.262 0 .471.078.629.235.183.131.261.328.235.59-.026.393-.235.877-.628 1.453-.393.55-.956 1.1-1.689 1.65-.733.55-1.623 1.01-2.671 1.376-1.047.34-2.252.51-3.613.51Zm-5.341-12.1h10.761v-.119c0-1.178-.223-2.226-.668-3.143-.419-.916-1.034-1.637-1.846-2.16-.811-.55-1.78-.826-2.906-.826-1.126 0-2.095.275-2.906.825-.786.524-1.388 1.245-1.807 2.161-.419.917-.628 1.965-.628 3.143v.118Z" fill="#1F2D5E"/><defs><linearGradient id="a" x1="37.879" y1="37.686" x2="8.559" y2="19.536" gradientUnits="userSpaceOnUse"><stop stop-color="#D0EBFF"/><stop offset="1" stop-color="#fff" stop-opacity=".21"/></linearGradient><linearGradient id="b" x1="4.211" y1="11.641" x2="20.87" y2="38.23" gradientUnits="userSpaceOnUse"><stop stop-color="#FFE27C"/><stop offset="1" stop-color="#FFA031"/></linearGradient></defs></svg>