<svg width="46" height="46" viewBox="0 0 46 46" fill="none" xmlns="http://www.w3.org/2000/svg"><g opacity=".5" fill="#fff"><path d="M23 7.506c-6.181 0-11.18 5-11.18 11.18 0 6.547 6.814 15.527 9.803 19.151a1.772 1.772 0 0 0 2.754 0c2.99-3.624 9.804-12.604 9.804-19.15 0-6.182-5-11.18-11.181-11.18Zm-7.986 11.18A7.99 7.99 0 0 1 23 10.7a7.99 7.99 0 0 1 7.986 7.987c0 3.955-3.4 9.598-6.506 13.834a1.82 1.82 0 0 1-2.95-.007c-3.076-4.23-6.516-9.918-6.516-13.827Z"/><path d="M23 22.68a3.993 3.993 0 1 0 0-7.986 3.993 3.993 0 0 0 0 7.986Z"/></g></svg>