<svg width="243" height="197" fill="none" xmlns="http://www.w3.org/2000/svg"><g opacity=".8" clip-path="url(#a)"><g filter="url(#b)"><path fill-rule="evenodd" clip-rule="evenodd" d="M87.042 90h-59.41C18.998 90 12 82.992 12 74.347c0-8.454 6.693-15.343 15.064-15.643C27.219 43.377 39.702 31 55.077 31c11.198 0 20.862 6.565 25.347 16.053a22 22 0 0 1 6.585-1.002c12.145 0 21.991 9.838 21.991 21.974 0 11.834-9.36 21.483-21.087 21.957V90h-.871Z" fill="url(#c)"/><g filter="url(#d)"><path fill-rule="evenodd" clip-rule="evenodd" d="M77.352 127h101.057C193.096 127 205 115.121 205 100.469c0-14.329-11.386-26.004-25.624-26.513C179.112 47.977 157.879 27 131.724 27c-19.048 0-35.486 11.127-43.115 27.21a37.543 37.543 0 0 0-11.202-1.7C56.747 52.51 40 69.186 40 89.755c0 20.058 15.923 36.412 35.87 37.214V127h1.482Z" fill="url(#e)"/></g></g><rect x="120.114" y="135.752" width="6" height="37.13" rx="3" transform="rotate(15 120.114 135.752)" fill="url(#f)"/><rect x="142.61" y="134" width="6" height="25.653" rx="3" transform="rotate(15 142.61 134)" fill="url(#g)"/><rect x="97.639" y="135" width="6" height="17.382" rx="3" transform="rotate(15 97.64 135)" fill="url(#h)"/></g><defs><linearGradient id="c" x1="69" y1="76.5" x2="43.472" y2="38.519" gradientUnits="userSpaceOnUse"><stop stop-color="#AADBFF"/><stop offset="1" stop-color="#fff" stop-opacity="0"/></linearGradient><linearGradient id="e" x1="179.379" y1="116.796" x2="91.121" y2="26.617" gradientUnits="userSpaceOnUse"><stop stop-color="#D0EBFF"/><stop offset="1" stop-color="#fff" stop-opacity=".1"/></linearGradient><linearGradient id="f" x1="125.153" y1="169.093" x2="118.459" y2="168.402" gradientUnits="userSpaceOnUse"><stop stop-color="#CAE6FF"/></linearGradient><linearGradient id="g" x1="147.649" y1="157.035" x2="141.032" y2="156.047" gradientUnits="userSpaceOnUse"><stop stop-color="#CAE6FF"/></linearGradient><linearGradient id="h" x1="102.679" y1="150.609" x2="96.227" y2="149.186" gradientUnits="userSpaceOnUse"><stop stop-color="#CAE6FF"/></linearGradient><filter id="b" x="-16" y="-2" width="253" height="160" filterUnits="userSpaceOnUse" color-interpolation-filters="sRGB"><feFlood flood-opacity="0" result="BackgroundImageFix"/><feColorMatrix in="SourceAlpha" values="0 0 0 0 0 0 0 0 0 0 0 0 0 0 0 0 0 0 127 0" result="hardAlpha"/><feOffset dx="2" dy="1"/><feGaussianBlur stdDeviation="15"/><feComposite in2="hardAlpha" operator="out"/><feColorMatrix values="0 0 0 0 0.793333 0 0 0 0 0.9008 0 0 0 0 1 0 0 0 0.5 0"/><feBlend in2="BackgroundImageFix" result="effect1_dropShadow_12_772"/><feColorMatrix in="SourceAlpha" values="0 0 0 0 0 0 0 0 0 0 0 0 0 0 0 0 0 0 127 0" result="hardAlpha"/><feOffset dy="1"/><feGaussianBlur stdDeviation="9.5"/><feComposite in2="hardAlpha" operator="out"/><feColorMatrix values="0 0 0 0 0.40125 0 0 0 0 0.580754 0 0 0 0 0.75 0 0 0 0.4 0"/><feBlend in2="effect1_dropShadow_12_772" result="effect2_dropShadow_12_772"/><feBlend in="SourceGraphic" in2="effect2_dropShadow_12_772" result="shape"/></filter><filter id="d" x="32" y="19" width="181" height="116" filterUnits="userSpaceOnUse" color-interpolation-filters="sRGB"><feFlood flood-opacity="0" result="BackgroundImageFix"/><feGaussianBlur in="BackgroundImageFix" stdDeviation="4"/><feComposite in2="SourceAlpha" operator="in" result="effect1_backgroundBlur_12_772"/><feBlend in="SourceGraphic" in2="effect1_backgroundBlur_12_772" result="shape"/></filter><clipPath id="a"><path fill="#fff" d="M0 0h243v197H0z"/></clipPath></defs></svg>