<svg width="22" height="22" fill="none" xmlns="http://www.w3.org/2000/svg"><path fill-rule="evenodd" clip-rule="evenodd" d="M11 3.579a.703.703 0 0 0-.703.703v.13a2.021 2.021 0 0 1-1.225 1.85.79.79 0 0 1-.204.056 2.021 2.021 0 0 1-2.077-.464l-.007-.006-.044-.045a.706.706 0 0 0-.996 0 .703.703 0 0 0 0 .996l.05.051a2.021 2.021 0 0 1 .415 2.207 2.021 2.021 0 0 1-1.86 1.3h-.067a.703.703 0 0 0 0 1.406h.13a2.02 2.02 0 0 1 1.848 1.221 2.02 2.02 0 0 1-.406 2.226l-.006.006-.045.044a.706.706 0 0 0 0 .996.703.703 0 0 0 .996 0l.051-.05a2.021 2.021 0 0 1 2.207-.415 2.021 2.021 0 0 1 1.3 1.86v.067a.703.703 0 0 0 1.406 0v-.13a2.02 2.02 0 0 1 1.221-1.848 2.021 2.021 0 0 1 2.226.406l.006.006.044.045a.706.706 0 0 0 .996 0 .703.703 0 0 0 0-.996l-.05-.051a2.022 2.022 0 0 1-.406-2.226 2.021 2.021 0 0 1 1.847-1.22H17.718a.703.703 0 0 0 0-1.407h-.13a2.02 2.02 0 0 1-1.85-1.225.791.791 0 0 1-.056-.204 2.022 2.022 0 0 1 .464-2.077l.006-.007.045-.044a.706.706 0 0 0 0-.996.703.703 0 0 0-.996 0l-.051.05a2.021 2.021 0 0 1-2.226.407 2.021 2.021 0 0 1-1.22-1.848V4.282A.703.703 0 0 0 11 3.58Zm-1.614-.91a2.282 2.282 0 0 1 3.896 1.613v.065a.442.442 0 0 0 .268.404l.008.003a.442.442 0 0 0 .485-.086l.04-.04c.001 0 0 0 0 0a2.284 2.284 0 1 1 3.23 3.228l-.04.041a.442.442 0 0 0-.087.485.789.789 0 0 1 .049.149.443.443 0 0 0 .358.187h.125a2.282 2.282 0 0 1 0 4.564h-.066a.443.443 0 0 0-.403.268l-.003.008a.442.442 0 0 0 .086.485l.04.04a2.283 2.283 0 1 1-3.228 3.23l-.041-.04a.443.443 0 0 0-.485-.087l-.008.003a.442.442 0 0 0-.268.404v.125a2.282 2.282 0 1 1-4.565 0v-.056a.442.442 0 0 0-.289-.398.773.773 0 0 1-.046-.018.441.441 0 0 0-.485.086l-.04.04a2.283 2.283 0 1 1-3.23-3.228l.04-.041a.442.442 0 0 0 .087-.485l-.003-.008a.442.442 0 0 0-.404-.268h-.125a2.282 2.282 0 1 1 0-4.565h.056a.442.442 0 0 0 .398-.289.793.793 0 0 1 .018-.046.442.442 0 0 0-.086-.485l-.04-.04c0-.001 0 0 0 0a2.284 2.284 0 0 1 2.488-3.725c.277.115.528.283.74.495l.041.04a.442.442 0 0 0 .485.087.79.79 0 0 1 .149-.049.442.442 0 0 0 .187-.358v-.125c0-.605.24-1.186.668-1.614ZM11 9.262a1.737 1.737 0 1 0 0 3.474 1.737 1.737 0 0 0 0-3.474ZM7.684 11a3.316 3.316 0 1 1 6.632 0 3.316 3.316 0 0 1-6.632 0Z" fill="#1F2D5E"/></svg>