<svg width="25" height="24" viewBox="0 0 25 24" fill="none" xmlns="http://www.w3.org/2000/svg"><path fill-rule="evenodd" clip-rule="evenodd" d="M12.727 4.579a.703.703 0 0 0-.704.703v.13a2.02 2.02 0 0 1-1.225 1.85.788.788 0 0 1-.204.056 2.021 2.021 0 0 1-2.077-.464l-.006-.006-.045-.045a.705.705 0 0 0-.995 0 .703.703 0 0 0 0 .996l.05.051a2.021 2.021 0 0 1 .414 2.207 2.02 2.02 0 0 1-1.859 1.3H6.01a.703.703 0 1 0 0 1.406h.13a2.02 2.02 0 0 1 1.848 1.221 2.02 2.02 0 0 1-.406 2.225l-.006.007-.045.044a.706.706 0 0 0 0 .996.703.703 0 0 0 .996 0l.05-.05a2.021 2.021 0 0 1 2.207-.415 2.021 2.021 0 0 1 1.3 1.841V18.718a.703.703 0 0 0 1.407 0v-.13a2.02 2.02 0 0 1 1.22-1.848 2.021 2.021 0 0 1 2.226.406l.006.006.045.045a.705.705 0 0 0 .996 0 .703.703 0 0 0 0-.996l-.051-.051a2.022 2.022 0 0 1-.406-2.226 2.021 2.021 0 0 1 1.848-1.22h.07a.703.703 0 0 0 0-1.407h-.13a2.02 2.02 0 0 1-1.85-1.225.792.792 0 0 1-.056-.204 2.02 2.02 0 0 1 .464-2.077l.006-.007.045-.044a.706.706 0 0 0 0-.996.704.704 0 0 0-.995 0l-.052.05a2.021 2.021 0 0 1-2.225.407 2.021 2.021 0 0 1-1.221-1.848V5.282a.703.703 0 0 0-.703-.703Zm-1.614-.91a2.282 2.282 0 0 1 3.896 1.613v.065a.442.442 0 0 0 .268.404l.008.003a.442.442 0 0 0 .485-.086l.04-.04a2.284 2.284 0 1 1 3.23 3.228l-.041.041a.442.442 0 0 0-.086.485.796.796 0 0 1 .048.149.443.443 0 0 0 .359.187h.124a2.282 2.282 0 1 1 0 4.564h-.065a.443.443 0 0 0-.403.268l-.004.008a.443.443 0 0 0 .086.485l.041.04a2.283 2.283 0 1 1-3.228 3.23l-.041-.04a.443.443 0 0 0-.486-.087l-.007.003a.442.442 0 0 0-.268.404v.125a2.282 2.282 0 0 1-4.565 0v-.056a.442.442 0 0 0-.29-.398.769.769 0 0 1-.045-.018.442.442 0 0 0-.486.086l-.04.04a2.283 2.283 0 1 1-3.23-3.228l.042-.041a.442.442 0 0 0 .086-.485l-.004-.008a.442.442 0 0 0-.403-.268h-.125a2.282 2.282 0 1 1 0-4.565h.056a.442.442 0 0 0 .397-.289.787.787 0 0 1 .019-.046.442.442 0 0 0-.086-.485l-.04-.04c0-.001 0 0 0 0a2.284 2.284 0 1 1 3.228-3.23l.04.04a.442.442 0 0 0 .486.087.788.788 0 0 1 .148-.049.441.441 0 0 0 .187-.358v-.125c0-.605.24-1.186.669-1.614Zm1.614 6.594a1.737 1.737 0 1 0 0 3.474 1.737 1.737 0 0 0 0-3.474ZM9.41 12a3.316 3.316 0 1 1 6.631 0 3.316 3.316 0 0 1-6.631 0Z" fill="#1F2D5E"/></svg>