<svg width="243" height="197" viewBox="0 0 243 197" fill="none" xmlns="http://www.w3.org/2000/svg"><g clip-path="url(#a)"><g filter="url(#b)"><path fill-rule="evenodd" clip-rule="evenodd" d="M88.042 90h-59.41C19.998 90 13 82.992 13 74.347c0-8.454 6.693-15.343 15.064-15.643C28.219 43.377 40.702 31 56.077 31c11.198 0 20.862 6.565 25.347 16.053a22 22 0 0 1 6.585-1.002c12.145 0 21.991 9.838 21.991 21.974 0 11.834-9.361 21.483-21.087 21.957V90h-.871Z" fill="url(#c)"/><g filter="url(#d)"><path fill-rule="evenodd" clip-rule="evenodd" d="M78.352 127h101.057C194.096 127 206 115.121 206 100.469c0-14.329-11.386-26.004-25.624-26.513C180.112 47.977 158.879 27 132.724 27c-19.048 0-35.486 11.127-43.115 27.21a37.543 37.543 0 0 0-11.202-1.7C57.747 52.51 41 69.186 41 89.755c0 20.058 15.923 36.412 35.87 37.214V127h1.482Z" fill="url(#e)"/></g></g><path fill-rule="evenodd" clip-rule="evenodd" d="m110.995 153.002-7.668 4.486-4.704-2.159a1.507 1.507 0 1 0-1.258 2.74l2.783 1.278-1.002.586a1.5 1.5 0 0 0 1.515 2.59l.972-.569-.301 3.102a1.49 1.49 0 1 0 2.969.288l.51-5.249 7.673-4.489v9.023l-4.216 3.06a1.501 1.501 0 0 0 1.763 2.428l2.453-1.781v1.164a1.5 1.5 0 1 0 2.999 0v-1.164l2.453 1.781a1.5 1.5 0 1 0 1.762-2.428l-4.215-3.06v-9.002l7.689 4.498.511 5.251a1.491 1.491 0 1 0 2.969-.289l-.302-3.102.973.569a1.5 1.5 0 0 0 1.515-2.589l-1.002-.586 2.783-1.278a1.508 1.508 0 0 0-1.259-2.741l-4.702 2.159-7.722-4.517 7.698-4.504 4.743 2.178a1.508 1.508 0 0 0 1.258-2.741l-2.823-1.296 1.029-.602a1.5 1.5 0 0 0-1.515-2.589l-.955.559.297-3.058a1.492 1.492 0 1 0-2.969-.289l-.506 5.206-7.71 4.51v-8.975l4.25-3.085a1.5 1.5 0 0 0-1.762-2.428l-2.488 1.806V136.5a1.5 1.5 0 1 0-2.999 0v1.144l-2.419-1.756a1.501 1.501 0 0 0-1.762 2.428l4.181 3.035v9.046l-7.649-4.474-.515-5.294a1.491 1.491 0 1 0-2.969.289l.306 3.145-.999-.584a1.5 1.5 0 0 0-1.515 2.589l.985.576-2.744 1.26a1.507 1.507 0 1 0 1.259 2.741l4.663-2.141 7.689 4.498Z" fill="url(#f)"/><path fill-rule="evenodd" clip-rule="evenodd" d="m156.413 147.501-5.325 3.116-3.266-1.5a1.047 1.047 0 0 0-.874 1.903l1.933.888-.696.407a1.042 1.042 0 0 0 1.052 1.798l.675-.395-.209 2.154a1.036 1.036 0 1 0 2.062.2l.354-3.645 5.328-3.117v6.266l-2.927 2.125a1.041 1.041 0 1 0 1.223 1.686l1.704-1.237v.809a1.04 1.04 0 1 0 2.083 0v-.809l1.703 1.237a1.042 1.042 0 0 0 1.224-1.686l-2.927-2.125v-6.252l5.34 3.124.354 3.646c.055.568.559.985 1.127.931.572-.053.991-.56.935-1.131l-.209-2.155.675.395a1.041 1.041 0 1 0 1.052-1.798l-.696-.406 1.933-.888a1.047 1.047 0 1 0-.874-1.903l-3.266 1.499-5.362-3.137 5.346-3.127 3.293 1.512a1.048 1.048 0 0 0 .874-1.903l-1.96-.9.714-.418a1.041 1.041 0 1 0-1.052-1.798l-.663.388.206-2.124a1.036 1.036 0 0 0-2.062-.2l-.351 3.615-5.354 3.132v-6.233l2.951-2.142a1.042 1.042 0 0 0-1.223-1.686l-1.728 1.254v-.83a1.041 1.041 0 0 0-2.083 0v.795l-1.679-1.219a1.041 1.041 0 1 0-1.224 1.686l2.903 2.107v6.283l-5.312-3.108-.357-3.676a1.035 1.035 0 1 0-2.062.2l.212 2.185-.693-.406a1.042 1.042 0 0 0-1.052 1.798l.683.4-1.905.875a1.047 1.047 0 0 0 .874 1.903l3.239-1.487 5.339 3.124Z" fill="url(#g)"/></g><defs><linearGradient id="c" x1="70" y1="76.5" x2="37.967" y2="31.024" gradientUnits="userSpaceOnUse"><stop stop-color="#AADBFF"/><stop offset="1" stop-color="#fff" stop-opacity=".21"/></linearGradient><linearGradient id="e" x1="180.379" y1="116.796" x2="92.121" y2="26.617" gradientUnits="userSpaceOnUse"><stop stop-color="#D0EBFF"/><stop offset="1" stop-color="#fff" stop-opacity=".21"/></linearGradient><linearGradient id="f" x1="126.235" y1="167.327" x2="97.403" y2="148.914" gradientUnits="userSpaceOnUse"><stop stop-color="#CAE6FF"/></linearGradient><linearGradient id="g" x1="166.997" y1="157.449" x2="146.975" y2="144.663" gradientUnits="userSpaceOnUse"><stop stop-color="#CAE6FF"/></linearGradient><filter id="b" x="-15" y="-2" width="253" height="160" filterUnits="userSpaceOnUse" color-interpolation-filters="sRGB"><feFlood flood-opacity="0" result="BackgroundImageFix"/><feColorMatrix in="SourceAlpha" values="0 0 0 0 0 0 0 0 0 0 0 0 0 0 0 0 0 0 127 0" result="hardAlpha"/><feOffset dx="2" dy="1"/><feGaussianBlur stdDeviation="15"/><feComposite in2="hardAlpha" operator="out"/><feColorMatrix values="0 0 0 0 0.793333 0 0 0 0 0.9008 0 0 0 0 1 0 0 0 0.5 0"/><feBlend in2="BackgroundImageFix" result="effect1_dropShadow_12_773"/><feColorMatrix in="SourceAlpha" values="0 0 0 0 0 0 0 0 0 0 0 0 0 0 0 0 0 0 127 0" result="hardAlpha"/><feOffset dy="1"/><feGaussianBlur stdDeviation="9.5"/><feComposite in2="hardAlpha" operator="out"/><feColorMatrix values="0 0 0 0 0.40125 0 0 0 0 0.580754 0 0 0 0 0.75 0 0 0 0.4 0"/><feBlend in2="effect1_dropShadow_12_773" result="effect2_dropShadow_12_773"/><feBlend in="SourceGraphic" in2="effect2_dropShadow_12_773" result="shape"/></filter><filter id="d" x="33" y="19" width="181" height="116" filterUnits="userSpaceOnUse" color-interpolation-filters="sRGB"><feFlood flood-opacity="0" result="BackgroundImageFix"/><feGaussianBlur in="BackgroundImageFix" stdDeviation="4"/><feComposite in2="SourceAlpha" operator="in" result="effect1_backgroundBlur_12_773"/><feBlend in="SourceGraphic" in2="effect1_backgroundBlur_12_773" result="shape"/></filter><clipPath id="a"><path fill="#fff" d="M0 0h243v197H0z"/></clipPath></defs></svg>