<svg width="34" height="34" fill="none" xmlns="http://www.w3.org/2000/svg"><path fill-rule="evenodd" clip-rule="evenodd" d="m15.33 17.003-4.26 2.493-2.612-1.2a.838.838 0 1 0-.7 1.523l1.547.71-.557.326a.833.833 0 0 0 .842 1.439l.54-.317-.168 1.724a.829.829 0 1 0 1.65.16l.283-2.917 4.262-2.494v5.014l-2.341 1.7a.833.833 0 0 0 .98 1.349l1.361-.99v.648a.833.833 0 0 0 1.666 0v-.647l1.363.99a.833.833 0 0 0 .98-1.349l-2.342-1.701v-5.002l4.272 2.5.283 2.917a.829.829 0 1 0 1.65-.16l-.168-1.724.54.316a.833.833 0 0 0 .842-1.439l-.556-.326 1.546-.71a.838.838 0 0 0-.7-1.523l-2.612 1.2-4.29-2.51 4.277-2.502 2.634 1.21a.838.838 0 1 0 .7-1.523l-1.569-.72.572-.335a.833.833 0 0 0-.842-1.438l-.53.31.165-1.7a.829.829 0 1 0-1.65-.16l-.28 2.893-4.284 2.506v-4.987l2.361-1.715a.833.833 0 1 0-.98-1.349l-1.381 1.004v-.664a.833.833 0 1 0-1.666 0v.636l-1.344-.975a.833.833 0 0 0-.98 1.349l2.323 1.686v5.027l-4.249-2.487-.286-2.941a.829.829 0 1 0-1.65.16l.17 1.748-.554-.324a.833.833 0 1 0-.842 1.438l.547.32-1.524.7a.838.838 0 1 0 .7 1.523l2.59-1.19 4.272 2.5Z" fill="#6694BF"/></svg>