<svg width="44" height="44" fill="none" xmlns="http://www.w3.org/2000/svg"><circle cx="22" cy="22" r="22" fill="#FFB97C"/><path d="M23.392 24.962v-4.86c0-.27-.108-.529-.302-.72a1.042 1.042 0 0 0-1.462 0c-.193.191-.302.45-.302.72v4.86a2.051 2.051 0 0 0-.753.74 2.009 2.009 0 0 0-.28 1.01c0 .539.217 1.056.605 1.438.387.381.913.596 1.461.596s1.074-.215 1.461-.596c.388-.382.606-.899.606-1.438a2.008 2.008 0 0 0-.28-1.01 2.051 2.051 0 0 0-.754-.74Zm3.617-2.318v-7.627a4.54 4.54 0 0 0-1.362-3.236 4.688 4.688 0 0 0-3.288-1.34 4.688 4.688 0 0 0-3.288 1.34 4.54 4.54 0 0 0-1.362 3.236v7.627a6.065 6.065 0 0 0-1.423 2.803 6.008 6.008 0 0 0 .178 3.128 6.093 6.093 0 0 0 1.733 2.63 6.236 6.236 0 0 0 2.83 1.435c.437.099.883.157 1.332.173a6.272 6.272 0 0 0 3.383-.97 6.13 6.13 0 0 0 2.3-2.628 6.014 6.014 0 0 0 .473-3.436 6.061 6.061 0 0 0-1.506-3.135Zm-2.067 7.19a4.185 4.185 0 0 1-2.997 1.019 4.168 4.168 0 0 1-2.851-1.365 4.037 4.037 0 0 1-1.036-2.95 4.053 4.053 0 0 1 1.387-2.806 1.017 1.017 0 0 0 .31-.722v-7.993c0-.675.272-1.321.757-1.798a2.604 2.604 0 0 1 1.826-.745c.685 0 1.343.268 1.827.745.485.477.757 1.123.757 1.798v8.074a1.004 1.004 0 0 0 .31.722c.422.402.753.887.97 1.425a4.009 4.009 0 0 1-.16 3.348 4.082 4.082 0 0 1-1.1 1.329v-.081Z" fill="#fff"/></svg>