<svg width="243" height="197" viewBox="0 0 243 197" fill="none" xmlns="http://www.w3.org/2000/svg"><g clip-path="url(#a)"><g filter="url(#b)"><path fill-rule="evenodd" clip-rule="evenodd" d="M88.042 90h-59.41C19.998 90 13 82.992 13 74.347c0-8.454 6.693-15.343 15.064-15.643C28.219 43.377 40.702 31 56.077 31c11.198 0 20.862 6.565 25.347 16.053a22 22 0 0 1 6.585-1.002c12.145 0 21.991 9.838 21.991 21.974 0 11.834-9.361 21.483-21.087 21.957V90h-.871Z" fill="url(#c)"/><g filter="url(#d)"><path fill-rule="evenodd" clip-rule="evenodd" d="M78.352 127h101.057C194.096 127 206 115.121 206 100.469c0-14.329-11.386-26.004-25.624-26.513C180.112 47.977 158.879 27 132.724 27c-19.048 0-35.486 11.127-43.115 27.21a37.543 37.543 0 0 0-11.202-1.7C57.747 52.51 41 69.186 41 89.755c0 20.058 15.923 36.412 35.87 37.214V127h1.482Z" fill="url(#e)"/></g></g><g filter="url(#f)"><path d="m94.301 127.85 32.582-46.582c1.846-2.64 5.989-.91 5.409 2.26l-5.998 32.819a3 3 0 0 0 2.951 3.539h17.352c2.543 0 3.933 2.966 2.306 4.92l-33.289 39.971c-1.999 2.4-5.877.529-5.243-2.529l5.409-26.069a3 3 0 0 0-2.937-3.61H96.759c-2.426 0-3.849-2.731-2.458-4.719Z" fill="url(#g)"/></g></g><defs><linearGradient id="c" x1="70" y1="76.5" x2="37.967" y2="31.024" gradientUnits="userSpaceOnUse"><stop stop-color="#AADBFF"/><stop offset="1" stop-color="#fff" stop-opacity=".21"/></linearGradient><linearGradient id="e" x1="180.379" y1="116.796" x2="92.121" y2="26.617" gradientUnits="userSpaceOnUse"><stop stop-color="#D0EBFF"/><stop offset="1" stop-color="#fff" stop-opacity=".21"/></linearGradient><linearGradient id="g" x1="99.547" y1="79.905" x2="162.477" y2="139.803" gradientUnits="userSpaceOnUse"><stop stop-color="#FFE27C"/><stop offset="1" stop-color="#FFA031"/></linearGradient><filter id="b" x="-15" y="-2" width="253" height="160" filterUnits="userSpaceOnUse" color-interpolation-filters="sRGB"><feFlood flood-opacity="0" result="BackgroundImageFix"/><feColorMatrix in="SourceAlpha" values="0 0 0 0 0 0 0 0 0 0 0 0 0 0 0 0 0 0 127 0" result="hardAlpha"/><feOffset dx="2" dy="1"/><feGaussianBlur stdDeviation="15"/><feComposite in2="hardAlpha" operator="out"/><feColorMatrix values="0 0 0 0 0.793333 0 0 0 0 0.9008 0 0 0 0 1 0 0 0 0.5 0"/><feBlend in2="BackgroundImageFix" result="effect1_dropShadow_278_5936"/><feColorMatrix in="SourceAlpha" values="0 0 0 0 0 0 0 0 0 0 0 0 0 0 0 0 0 0 127 0" result="hardAlpha"/><feOffset dy="1"/><feGaussianBlur stdDeviation="9.5"/><feComposite in2="hardAlpha" operator="out"/><feColorMatrix values="0 0 0 0 0.40125 0 0 0 0 0.580754 0 0 0 0 0.75 0 0 0 0.4 0"/><feBlend in2="effect1_dropShadow_278_5936" result="effect2_dropShadow_278_5936"/><feBlend in="SourceGraphic" in2="effect2_dropShadow_278_5936" result="shape"/></filter><filter id="d" x="33" y="19" width="181" height="116" filterUnits="userSpaceOnUse" color-interpolation-filters="sRGB"><feFlood flood-opacity="0" result="BackgroundImageFix"/><feGaussianBlur in="BackgroundImageFix" stdDeviation="4"/><feComposite in2="SourceAlpha" operator="in" result="effect1_backgroundBlur_278_5936"/><feBlend in="SourceGraphic" in2="effect1_backgroundBlur_278_5936" result="shape"/></filter><filter id="f" x="43.754" y="30.976" width="155.849" height="185.894" filterUnits="userSpaceOnUse" color-interpolation-filters="sRGB"><feFlood flood-opacity="0" result="BackgroundImageFix"/><feColorMatrix in="SourceAlpha" values="0 0 0 0 0 0 0 0 0 0 0 0 0 0 0 0 0 0 127 0" result="hardAlpha"/><feOffset dx="2" dy="1"/><feGaussianBlur stdDeviation="15.5"/><feComposite in2="hardAlpha" operator="out"/><feColorMatrix values="0 0 0 0 0.40125 0 0 0 0 0.580754 0 0 0 0 0.75 0 0 0 0.15 0"/><feBlend in2="BackgroundImageFix" result="effect1_dropShadow_278_5936"/><feColorMatrix in="SourceAlpha" values="0 0 0 0 0 0 0 0 0 0 0 0 0 0 0 0 0 0 127 0" result="hardAlpha"/><feOffset dy="1"/><feGaussianBlur stdDeviation="25"/><feComposite in2="hardAlpha" operator="out"/><feColorMatrix values="0 0 0 0 0.705472 0 0 0 0 0.84346 0 0 0 0 0.970833 0 0 0 0.35 0"/><feBlend in2="effect1_dropShadow_278_5936" result="effect2_dropShadow_278_5936"/><feBlend in="SourceGraphic" in2="effect2_dropShadow_278_5936" result="shape"/></filter><clipPath id="a"><path fill="#fff" d="M0 0h243v197H0z"/></clipPath></defs></svg>