<svg width="35" height="35" fill="none" xmlns="http://www.w3.org/2000/svg"><path fill-rule="evenodd" clip-rule="evenodd" d="M4.825 17.752a8.964 8.964 0 0 1 17.853-1.06 5.643 5.643 0 1 1 1.616 10.997v.084H5.017a5.012 5.012 0 0 1-.192-10.021Z" fill="url(#a)"/><path fill-rule="evenodd" clip-rule="evenodd" d="M24.398 7a6.248 6.248 0 0 1 6.248 6.183 3.493 3.493 0 0 1 1.08 6.767A5.998 5.998 0 0 0 24.095 16a9.526 9.526 0 0 0-4.406-6.857A6.233 6.233 0 0 1 24.398 7Z" fill="url(#b)"/><path d="m10.11 27.457 4.734-6.726c.617-.877 1.995-.298 1.801.757l-.722 3.925a1 1 0 0 0 .984 1.18h1.95a1 1 0 0 1 .766 1.643l-4.786 5.71c-.668.797-1.958.171-1.745-.847l.598-2.862a1 1 0 0 0-.98-1.204h-1.783a1 1 0 0 1-.818-1.576Z" fill="url(#c)"/><defs><linearGradient id="a" x1="4.824" y1="25.845" x2="21.499" y2="8.881" gradientUnits="userSpaceOnUse"><stop stop-color="#CAE6FF"/></linearGradient><linearGradient id="b" x1="30.646" y1="18.823" x2="19.024" y2="7" gradientUnits="userSpaceOnUse"><stop stop-color="#B4D7F8"/></linearGradient><linearGradient id="c" x1="10.654" y1="18.905" x2="22.76" y2="30.501" gradientUnits="userSpaceOnUse"><stop stop-color="#FFE27C"/><stop offset="1" stop-color="#FFA031"/></linearGradient></defs></svg>