<svg width="40" height="40" viewBox="0 0 40 40" fill="none" xmlns="http://www.w3.org/2000/svg"><path fill-rule="evenodd" clip-rule="evenodd" d="M17.5 14.198v.007a1.467 1.467 0 0 0 .466-.07c.173-.057.328-.145.456-.258.128-.113.224-.248.282-.397a.896.896 0 0 0 .052-.46.954.954 0 0 0-.186-.434 1.175 1.175 0 0 0-.39-.326 1.408 1.408 0 0 0-.517-.153 1.467 1.467 0 0 0-.545.048h-.002l-.034-.086-.763-1.903a4.407 4.407 0 0 1 1.634-.145c.36.036.71.115 1.04.235.177.064.347.139.51.225.47.248.869.58 1.167.975.299.393.49.838.559 1.301.07.464.015.934-.157 1.378a3.1 3.1 0 0 1-.843 1.188 3.6 3.6 0 0 1-.428.325c-.284.185-.6.335-.938.445a4.37 4.37 0 0 1-1.389.21H5v-2.105h12.5ZM5 22.63v2.106h18.138v.003h.001c.275.002.546.055.795.154.248.1.467.245.642.425s.3.389.367.614c.068.225.075.46.022.687a1.466 1.466 0 0 1-.327.63 1.814 1.814 0 0 1-.614.453 2.192 2.192 0 0 1-1.59.08v.001l-.927 1.956a5.116 5.116 0 0 0 3.714-.188 4.236 4.236 0 0 0 1.435-1.057c.38-.438.64-.94.764-1.472a3.12 3.12 0 0 0-.052-1.605 3.503 3.503 0 0 0-.858-1.434 4.177 4.177 0 0 0-.863-.676c-.2-.12-.414-.225-.637-.315a5.061 5.061 0 0 0-1.855-.358v-.003H5Zm23.773-8.157h-.002l-1.229-1.833-.001-.002.002-.001a5.71 5.71 0 0 1 2.504-.544 5.813 5.813 0 0 1 1.9.333 5.056 5.056 0 0 1 1.833 1.122c.501.488.862 1.065 1.056 1.689.195.623.216 1.276.064 1.908a3.943 3.943 0 0 1-.944 1.735c-.4.436-.897.801-1.462 1.075a5.783 5.783 0 0 1-2.5.561H4.999V18.41h24.997v-.002c.382 0 .76-.073 1.102-.215.344-.142.644-.348.877-.603a1.97 1.97 0 0 0 .471-.866 1.782 1.782 0 0 0-.031-.954 2.017 2.017 0 0 0-.528-.843 2.524 2.524 0 0 0-.915-.56 2.917 2.917 0 0 0-2.2.105Z" fill="#fff"/></svg>