<svg width="34" height="34" fill="none" xmlns="http://www.w3.org/2000/svg"><path fill-rule="evenodd" clip-rule="evenodd" d="M4.82 17.752a8.964 8.964 0 0 1 17.853-1.06 5.643 5.643 0 1 1 1.616 10.997v.084H5.012a5.012 5.012 0 0 1-.192-10.021Z" fill="url(#a)"/><path fill-rule="evenodd" clip-rule="evenodd" d="M24.394 7a6.247 6.247 0 0 1 6.247 6.183 3.493 3.493 0 0 1 1.08 6.767A5.998 5.998 0 0 0 24.09 16a9.526 9.526 0 0 0-4.406-6.857A6.233 6.233 0 0 1 24.394 7Z" fill="url(#b)"/><defs><linearGradient id="a" x1="4.819" y1="25.845" x2="21.494" y2="8.881" gradientUnits="userSpaceOnUse"><stop stop-color="#CAE6FF"/></linearGradient><linearGradient id="b" x1="30.641" y1="18.823" x2="19.02" y2="7" gradientUnits="userSpaceOnUse"><stop stop-color="#B4D7F8"/></linearGradient></defs></svg>