<svg width="34" height="34" fill="none" xmlns="http://www.w3.org/2000/svg"><path fill-rule="evenodd" clip-rule="evenodd" d="M4.782 12.668a8.894 8.894 0 0 1 17.715-1.052A5.6 5.6 0 1 1 24.1 22.528v.083H4.973a4.973 4.973 0 0 1-.19-9.943Z" fill="url(#a)"/><path fill-rule="evenodd" clip-rule="evenodd" d="M24.204 2a6.199 6.199 0 0 1 6.199 6.135 3.466 3.466 0 0 1 1.07 6.715 5.952 5.952 0 0 0-7.57-3.921 9.452 9.452 0 0 0-4.371-6.804A6.184 6.184 0 0 1 24.204 2Z" fill="url(#b)"/><rect x="15.786" y="24.882" width="2" height="8" rx="1" transform="rotate(11.064 15.786 24.882)" fill="#6694BF"/><rect x="20.535" y="24" width="2" height="6.18" rx="1" transform="rotate(11.064 20.535 24)" fill="#6694BF"/><rect x="10.958" y="25.166" width="2" height="4.993" rx="1" transform="rotate(11.064 10.958 25.166)" fill="#6694BF"/><defs><linearGradient id="a" x1="4.782" y1="20.698" x2="21.327" y2="3.866" gradientUnits="userSpaceOnUse"><stop stop-color="#CAE6FF"/></linearGradient><linearGradient id="b" x1="30.403" y1="13.731" x2="18.872" y2="2" gradientUnits="userSpaceOnUse"><stop stop-color="#B4D7F8"/></linearGradient></defs></svg>